<svg width="223" height="107" viewBox="0 0 223 107" fill="none" xmlns="http://www.w3.org/2000/svg">
<path d="M13.1605 79.744H0.8725L36.3285 0H47.5925L82.9205 79.744H70.6325L56.8085 48.64C33.7685 44.672 13.1605 79.744 13.1605 79.744ZM52.2005 38.016L41.8325 14.592L25.5765 51.712C25.5765 51.712 36.8405 37.76 52.2005 38.016ZM135.19 38.272V80C135.19 103.168 118.038 106.24 107.286 106.112C90.5175 105.856 81.5575 92.672 81.5575 92.672L88.8535 86.528C88.8535 86.528 95.2535 96.256 107.286 96.384C113.302 96.384 123.798 93.696 123.798 80V79.872V49.536C123.798 49.536 116.63 83.968 95.8935 80.896C86.5495 79.488 82.5815 70.016 82.5815 53.76V23.424H93.9735V52.992C93.9735 52.992 93.3335 69.504 99.7335 70.144C113.942 71.68 123.798 23.424 123.798 23.424H135.19V38.272ZM145.433 1.28H156.825V80H145.433V1.28ZM164.498 48.384C166.161 33.792 178.962 23.04 194.45 22.4C213.906 21.632 222.738 31.104 220.434 41.344C217.234 55.04 181.906 65.536 181.906 65.536C185.49 69.12 190.226 71.296 195.474 71.296C207.89 71.296 213.394 60.544 213.394 60.544L221.074 65.536C221.074 65.536 212.37 81.024 194.45 81.024C183.954 81.024 174.738 75.776 169.234 67.84C168.594 66.816 166.93 63.872 166.161 62.08C166.161 62.08 208.274 50.944 208.402 38.144C208.402 33.536 201.746 31.744 195.474 32C186.13 32.384 178.066 39.04 176.53 48.384H164.498Z" fill="black"/>
</svg>
